<svg xmlns="http://www.w3.org/2000/svg" width="131.581" height="115" viewBox="0 0 131.581 115">
  <g id="Group_39699" data-name="Group 39699" transform="translate(-42 -554.5)">
    <g id="element-1" transform="translate(42 554.5)" opacity="0.3">
      <g id="Group_39674" data-name="Group 39674">
        <path id="Path_77952" data-name="Path 77952" d="M5.228,10.425A5.213,5.213,0,1,0,0,5.212,5.221,5.221,0,0,0,5.228,10.425Z" fill="#a4cafa"/>
      </g>
      <g id="Group_39675" data-name="Group 39675">
        <path id="Path_77953" data-name="Path 77953" d="M35.509,10.425a5.213,5.213,0,1,0-5.228-5.213A5.22,5.22,0,0,0,35.509,10.425Z" fill="#a4cafa"/>
      </g>
      <g id="Group_39676" data-name="Group 39676">
        <path id="Path_77954" data-name="Path 77954" d="M65.79,10.425a5.213,5.213,0,1,0-5.228-5.213A5.221,5.221,0,0,0,65.79,10.425Z" fill="#a4cafa"/>
      </g>
      <g id="Group_39677" data-name="Group 39677">
        <path id="Path_77955" data-name="Path 77955" d="M96.072,10.425a5.213,5.213,0,1,0-5.228-5.213A5.221,5.221,0,0,0,96.072,10.425Z" fill="#a4cafa"/>
      </g>
      <g id="Group_39678" data-name="Group 39678">
        <path id="Path_77956" data-name="Path 77956" d="M126.353,10.425a5.213,5.213,0,1,0-5.229-5.213A5.221,5.221,0,0,0,126.353,10.425Z" fill="#a4cafa"/>
      </g>
      <g id="Group_39679" data-name="Group 39679">
        <path id="Path_77957" data-name="Path 77957" d="M5.228,36.6A5.212,5.212,0,1,0,0,31.383,5.22,5.22,0,0,0,5.228,36.6Z" fill="#a4cafa"/>
      </g>
      <g id="Group_39680" data-name="Group 39680">
        <path id="Path_77958" data-name="Path 77958" d="M35.509,36.6a5.212,5.212,0,1,0-5.228-5.212A5.22,5.22,0,0,0,35.509,36.6Z" fill="#a4cafa"/>
      </g>
      <g id="Group_39681" data-name="Group 39681">
        <path id="Path_77959" data-name="Path 77959" d="M65.79,36.6a5.212,5.212,0,1,0-5.228-5.212A5.22,5.22,0,0,0,65.79,36.6Z" fill="#a4cafa"/>
      </g>
      <g id="Group_39682" data-name="Group 39682">
        <path id="Path_77960" data-name="Path 77960" d="M96.072,36.6a5.212,5.212,0,1,0-5.228-5.212A5.22,5.22,0,0,0,96.072,36.6Z" fill="#a4cafa"/>
      </g>
      <g id="Group_39683" data-name="Group 39683">
        <path id="Path_77961" data-name="Path 77961" d="M126.353,36.6a5.212,5.212,0,1,0-5.229-5.212A5.22,5.22,0,0,0,126.353,36.6Z" fill="#a4cafa"/>
      </g>
      <g id="Group_39684" data-name="Group 39684">
        <path id="Path_77962" data-name="Path 77962" d="M5.228,62.713A5.213,5.213,0,1,0,0,57.5,5.22,5.22,0,0,0,5.228,62.713Z" fill="#a4cafa"/>
      </g>
      <g id="Group_39685" data-name="Group 39685">
        <path id="Path_77963" data-name="Path 77963" d="M35.509,62.713A5.213,5.213,0,1,0,30.281,57.5,5.22,5.22,0,0,0,35.509,62.713Z" fill="#a4cafa"/>
      </g>
      <g id="Group_39686" data-name="Group 39686">
        <path id="Path_77964" data-name="Path 77964" d="M65.79,62.713A5.213,5.213,0,1,0,60.562,57.5,5.22,5.22,0,0,0,65.79,62.713Z" fill="#a4cafa"/>
      </g>
      <g id="Group_39687" data-name="Group 39687">
        <path id="Path_77965" data-name="Path 77965" d="M96.072,62.713A5.213,5.213,0,1,0,90.843,57.5,5.22,5.22,0,0,0,96.072,62.713Z" fill="#a4cafa"/>
      </g>
      <g id="Group_39688" data-name="Group 39688">
        <path id="Path_77966" data-name="Path 77966" d="M126.353,62.713a5.213,5.213,0,1,0-5.229-5.213A5.22,5.22,0,0,0,126.353,62.713Z" fill="#a4cafa"/>
      </g>
      <g id="Group_39689" data-name="Group 39689">
        <path id="Path_77967" data-name="Path 77967" d="M5.228,88.883A5.213,5.213,0,1,0,0,83.671,5.221,5.221,0,0,0,5.228,88.883Z" fill="#a4cafa"/>
      </g>
      <g id="Group_39690" data-name="Group 39690">
        <path id="Path_77968" data-name="Path 77968" d="M35.509,88.883a5.213,5.213,0,1,0-5.228-5.213A5.221,5.221,0,0,0,35.509,88.883Z" fill="#a4cafa"/>
      </g>
      <g id="Group_39691" data-name="Group 39691">
        <path id="Path_77969" data-name="Path 77969" d="M65.79,88.883a5.213,5.213,0,1,0-5.228-5.213A5.221,5.221,0,0,0,65.79,88.883Z" fill="#a4cafa"/>
      </g>
      <g id="Group_39692" data-name="Group 39692">
        <path id="Path_77970" data-name="Path 77970" d="M96.072,88.883a5.213,5.213,0,1,0-5.228-5.213A5.221,5.221,0,0,0,96.072,88.883Z" fill="#a4cafa"/>
      </g>
      <g id="Group_39693" data-name="Group 39693">
        <path id="Path_77971" data-name="Path 77971" d="M126.353,88.883a5.213,5.213,0,1,0-5.229-5.213A5.221,5.221,0,0,0,126.353,88.883Z" fill="#a4cafa"/>
      </g>
      <g id="Group_39694" data-name="Group 39694">
        <path id="Path_77972" data-name="Path 77972" d="M5.228,115A5.213,5.213,0,1,0,0,109.788,5.221,5.221,0,0,0,5.228,115Z" fill="#a4cafa"/>
      </g>
      <g id="Group_39695" data-name="Group 39695">
        <path id="Path_77973" data-name="Path 77973" d="M35.509,115a5.213,5.213,0,1,0-5.228-5.212A5.221,5.221,0,0,0,35.509,115Z" fill="#a4cafa"/>
      </g>
      <g id="Group_39696" data-name="Group 39696">
        <path id="Path_77974" data-name="Path 77974" d="M65.79,115a5.213,5.213,0,1,0-5.228-5.212A5.221,5.221,0,0,0,65.79,115Z" fill="#a4cafa"/>
      </g>
      <g id="Group_39697" data-name="Group 39697">
        <path id="Path_77975" data-name="Path 77975" d="M96.072,115a5.213,5.213,0,1,0-5.228-5.212A5.221,5.221,0,0,0,96.072,115Z" fill="#a4cafa"/>
      </g>
      <g id="Group_39698" data-name="Group 39698">
        <path id="Path_77976" data-name="Path 77976" d="M126.353,115a5.213,5.213,0,1,0-5.229-5.212A5.221,5.221,0,0,0,126.353,115Z" fill="#a4cafa"/>
      </g>
    </g>
  </g>
</svg>
